# xmcd
#
# Track frame offsets: 
#        150
#        23330
#        48307
#        71710
#        102137
#        125852
#        151861
#        175953
#        196304
#        224683
#        258815
#
# Disc length: 3947 seconds
#
# Revision: 0
# Processed by: cddbd v1.5.2PL0 Copyright (c) Steve Scherf et al.
# Submitted via: ExactAudioCopy v0.99pb5
#
DISCID=960f690b
DTITLE=Various Artist - Electro-Fi Records Presents Blues Piano-Rama
DYEAR=2010
DGENRE=Blues
TTITLE0=Kenny Wayne - Boogie Woogie Showdown
TTITLE1=Bobby Dean Blackburn - 24 Hours A Day
TTITLE2=Bobby Dean Blackburn and Julian Fauth - All Night Long
TTITLE3=Julian Fauth - Blues For Mel Brown
TTITLE4=Kenny Wayne - I Took The Wrong Road
TTITLE5=Juian Fauth and Curley Bridges - The Blues Ain't Nothing
TTITLE6=Curley Bridges - Rock Me Baby
TTITLE7=Julian Fauth - Sorry Don't Cut No Ice
TTITLE8=Curley Bridges - You're The One
TTITLE9=Julian Fauth - Loved And Lost
TTITLE10=Kenny Wayne - Something's Going On In My Room
EXTD=
EXTT0=
EXTT1=
EXTT2=
EXTT3=
EXTT4=
EXTT5=
EXTT6=
EXTT7=
EXTT8=
EXTT9=
EXTT10=
PLAYORDER=
